<svg width="612" height="130" viewBox="0 0 612 130" fill="none" xmlns="http://www.w3.org/2000/svg">
<path d="M149.608 129.336C146.792 129.336 144.061 128.525 141.416 126.904C137.491 124.429 134.76 120.675 133.224 115.64C131.688 110.691 130.92 105.229 130.92 99.256C130.92 93.88 131.347 88.376 132.2 82.744C133.053 77.0267 133.992 71.6507 135.016 66.616C136.125 61.496 137.064 57.1013 137.832 53.432C139.027 47.6293 140.221 41.912 141.416 36.28C142.696 30.5627 143.549 25.3573 143.976 20.664C144.061 19.9813 144.104 19.384 144.104 18.872C144.104 18.36 144.104 17.848 144.104 17.336C144.104 13.24 143.08 11.192 141.032 11.192H140.904C138.173 11.192 135.229 12.6427 132.072 15.544C128.915 18.36 125.757 22.2853 122.6 27.32C119.528 32.2693 116.669 37.9867 114.024 44.472C110.525 53.2613 107.965 61.1973 106.344 68.28C104.808 75.2773 103.656 81.976 102.888 88.376C102.632 90.2533 101.949 91.7893 100.84 92.984C99.816 94.0933 98.6213 94.7333 97.256 94.904H96.744C95.8907 94.904 94.9947 94.6907 94.056 94.264C93.1173 93.752 92.648 93.0693 92.648 92.216V91.832C93.672 86.7973 94.4827 81.8907 95.08 77.112C95.7627 72.3333 96.36 67.384 96.872 62.264C97.2133 59.2773 97.4267 56.4613 97.512 53.816C97.6827 51.0853 97.768 48.5253 97.768 46.136C97.768 36.4933 96.744 29.3253 94.696 24.632C92.7333 19.9387 90.2587 17.592 87.272 17.592C83.7733 17.592 79.9333 20.792 75.752 27.192C71.656 33.592 68.0293 43.0213 64.872 55.48C64.36 57.6133 63.7627 60.984 63.08 65.592C62.4827 70.2 61.928 75.7467 61.416 82.232C60.904 88.7173 60.4773 95.8427 60.136 103.608C59.9653 106.083 58.1733 107.32 54.76 107.32C53.224 107.32 51.7733 106.893 50.408 106.04C49.0427 105.272 48.3173 104.419 48.232 103.48C48.5733 101.091 49.0427 97.848 49.64 93.752C50.2373 89.656 50.8347 85.0053 51.432 79.8C52.0293 74.5947 52.4987 69.176 52.84 63.544C53.096 59.192 53.224 55.1387 53.224 51.384C53.224 40.5467 52.2853 31.8 50.408 25.144C48.616 18.488 46.2267 13.624 43.24 10.552C40.2533 7.39466 37.0107 5.81599 33.512 5.81599C30.44 5.81599 27.368 6.92533 24.296 9.144C21.224 11.2773 18.408 14.3493 15.848 18.36C13.288 22.2853 11.1547 26.808 9.448 31.928C7.82667 36.9627 7.016 42.8933 7.016 49.72C7.016 53.048 7.69867 55.9493 9.064 58.424C10.5147 60.8987 12.6053 62.136 15.336 62.136C17.0427 62.136 18.8773 61.5813 20.84 60.472C20.9253 60.3867 21.0533 60.344 21.224 60.344C21.736 60.344 21.992 60.6853 21.992 61.368C21.992 62.0507 21.5653 62.648 20.712 63.16C17.8107 64.7813 14.9947 65.592 12.264 65.592C8.85067 65.592 6.07733 64.2693 3.944 61.624C1.81067 58.9787 0.744 55.224 0.744 50.36C0.744 45.4107 1.68267 39.9067 3.56 33.848C5.43733 27.7893 8.21067 22.1573 11.88 16.952C15.3787 12.0027 19.0907 8.07733 23.016 5.17599C27.0267 2.27466 31.2507 0.823997 35.688 0.823997C40.808 0.823997 45.032 2.01866 48.36 4.408C51.688 6.712 54.3333 9.784 56.296 13.624C58.2587 17.464 59.7093 21.6453 60.648 26.168C61.5867 30.6907 62.184 35.2133 62.44 39.736C62.7813 44.1733 62.952 48.184 62.952 51.768C64.8293 43.064 67.3467 35.64 70.504 29.496C73.7467 23.2667 77.2453 18.488 81 15.16C84.84 11.832 88.4667 10.168 91.88 10.168C95.8907 10.168 99.2613 12.6 101.992 17.464C104.808 22.2427 106.216 29.88 106.216 40.376C106.216 41.912 106.173 43.5333 106.088 45.24C106.003 46.9467 105.875 48.7387 105.704 50.616C105.704 50.9573 105.661 51.6827 105.576 52.792C105.491 53.9013 105.405 55.0533 105.32 56.248C105.917 54.712 106.6 52.8773 107.368 50.744C108.221 48.5253 108.904 46.8187 109.416 45.624C111.379 40.8453 113.597 36.0667 116.072 31.288C118.547 26.424 121.277 21.9867 124.264 17.976C127.251 13.9653 130.408 10.7653 133.736 8.376C137.064 5.90133 140.52 4.66399 144.104 4.66399H144.744C151.144 4.66399 154.344 9.52799 154.344 19.256C154.344 21.816 154.131 24.7173 153.704 27.96C153.363 31.1173 152.723 34.616 151.784 38.456C151.528 39.736 150.973 41.9547 150.12 45.112C149.267 48.184 148.285 51.8533 147.176 56.12C146.067 60.3013 144.957 64.696 143.848 69.304C142.739 73.912 141.757 78.392 140.904 82.744C140.221 86.4133 139.667 90.04 139.24 93.624C138.813 97.208 138.6 100.621 138.6 103.864C138.6 109.837 139.453 114.744 141.16 118.584C142.952 122.509 146.067 124.472 150.504 124.472C153.149 124.472 155.581 123.832 157.8 122.552C160.019 121.272 161.64 119.693 162.664 117.816C162.92 117.304 163.261 117.048 163.688 117.048C164.2 117.048 164.456 117.347 164.456 117.944V118.072C164.456 119.864 163.731 121.613 162.28 123.32C160.915 125.112 159.123 126.563 156.904 127.672C154.685 128.781 152.253 129.336 149.608 129.336ZM176.805 101.432C172.624 101.432 169.04 100.451 166.053 98.488C163.152 96.5253 160.89 93.9227 159.269 90.68C157.733 87.352 156.88 83.768 156.709 79.928V77.368C156.709 73.272 157.136 69.176 157.989 65.08C158.928 60.984 160.336 57.2293 162.213 53.816C164.09 50.4027 166.48 47.672 169.381 45.624C172.282 43.4907 175.738 42.424 179.749 42.424H180.645C183.034 42.5093 184.741 43.4053 185.765 45.112C186.874 46.8187 187.429 48.6533 187.429 50.616V51.128C187.429 55.736 186.362 59.7467 184.229 63.16C182.181 66.488 179.578 69.176 176.421 71.224C173.264 73.272 169.978 74.68 166.565 75.448V76.088C166.565 78.2213 166.736 80.5253 167.077 83C167.418 85.3893 168.058 87.6933 168.997 89.912C169.936 92.1307 171.258 93.9653 172.965 95.416C174.672 96.7813 176.848 97.464 179.493 97.464C182.736 97.464 185.466 96.44 187.685 94.392C189.904 92.344 191.61 89.912 192.805 87.096C193.317 85.9013 193.744 84.5787 194.085 83.128C194.512 81.592 194.896 79.9707 195.237 78.264C195.408 77.24 195.749 76.728 196.261 76.728C196.944 76.728 197.285 77.4533 197.285 78.904C197.285 79.16 197.242 79.4587 197.157 79.8C197.157 80.056 197.114 80.3973 197.029 80.824C196.517 83.8107 195.792 86.456 194.853 88.76C193.146 93.1973 190.885 96.44 188.069 98.488C185.338 100.451 181.584 101.432 176.805 101.432ZM166.693 72.632C169.338 71.864 171.642 70.4987 173.605 68.536C175.653 66.488 177.274 64.0987 178.469 61.368C179.664 58.6373 180.304 55.864 180.389 53.048V52.28C180.389 50.8293 180.133 49.4213 179.621 48.056C179.109 46.6907 178.256 46.008 177.061 46.008H176.933C175.397 46.008 174.032 46.776 172.837 48.312C171.728 49.7627 170.789 51.64 170.021 53.944C169.253 56.248 168.613 58.6373 168.101 61.112C167.589 63.5867 167.205 65.848 166.949 67.896C166.778 69.944 166.693 71.4373 166.693 72.376V72.632ZM209.033 100.28C206.132 100.28 203.742 99.384 201.865 97.592C200.073 95.8 198.665 93.5387 197.641 90.808C196.617 87.992 195.849 85.1333 195.337 82.232C194.91 79.3307 194.654 76.8133 194.569 74.68C194.484 73.2293 194.441 71.9067 194.441 70.712C194.441 69.5173 194.441 68.408 194.441 67.384V67.256C194.441 62.8187 194.569 58.2533 194.825 53.56C195.081 48.8667 195.422 44.344 195.849 39.992C196.276 35.5547 196.745 31.544 197.257 27.96C197.769 24.2907 198.281 21.304 198.793 19C199.305 16.8667 200.116 14.4347 201.225 11.704C202.334 8.97333 203.785 6.62666 205.577 4.66399C207.369 2.61599 209.502 1.592 211.977 1.592C214.964 1.592 217.012 2.744 218.121 5.048C219.23 7.26667 219.785 10.04 219.785 13.368C219.785 16.184 219.486 19.2133 218.889 22.456C218.377 25.6133 217.694 28.6853 216.841 31.672C215.988 34.6587 215.177 37.304 214.409 39.608C213.726 41.912 213.172 43.576 212.745 44.6C211.38 48.184 209.801 51.8107 208.009 55.48C206.302 59.1493 204.596 62.4773 202.889 65.464C202.889 66.3173 202.846 67.256 202.761 68.28C202.761 69.2187 202.761 70.2853 202.761 71.48C202.761 73.9547 202.846 76.6 203.017 79.416C203.188 82.232 203.572 84.8773 204.169 87.352C204.766 89.7413 205.62 91.704 206.729 93.24C207.838 94.776 209.289 95.544 211.081 95.544C212.873 95.544 214.452 94.8613 215.817 93.496C217.524 91.8747 218.804 89.6987 219.657 86.968C220.596 84.2373 221.406 81.464 222.089 78.648C222.345 77.4533 222.772 76.856 223.369 76.856C223.796 76.856 224.009 77.368 224.009 78.392C224.009 78.648 223.966 78.9467 223.881 79.288C223.881 79.6293 223.838 80.0133 223.753 80.44C223.241 83.3413 222.43 86.328 221.321 89.4C220.297 92.472 218.804 95.0747 216.841 97.208C214.964 99.256 212.361 100.28 209.033 100.28ZM203.145 60.088C205.364 55.5653 207.412 50.7867 209.289 45.752C211.166 40.632 212.66 35.5973 213.769 30.648C214.964 25.6133 215.561 21.048 215.561 16.952C215.561 14.4773 215.348 12.4293 214.921 10.808C214.58 9.18667 213.897 8.376 212.873 8.376C211.849 8.376 210.868 9.48533 209.929 11.704C209.076 13.9227 208.265 16.824 207.497 20.408C206.814 23.992 206.217 27.8747 205.705 32.056C205.193 36.152 204.724 40.1627 204.297 44.088C203.956 47.928 203.657 51.2987 203.401 54.2C203.23 57.1013 203.145 59.064 203.145 60.088ZM234.756 99.512C231.684 99.512 229.252 98.5307 227.46 96.568C225.668 94.6053 224.345 92.2587 223.492 89.528C222.639 86.712 222.127 84.1093 221.956 81.72C221.785 79.416 221.657 76.984 221.572 74.424C221.487 71.7787 221.444 69.0053 221.444 66.104C221.444 60.8133 221.572 55.352 221.828 49.72C222.169 44.088 222.639 38.6267 223.236 33.336C223.919 27.96 224.729 23.1813 225.668 19C226.18 16.8667 226.991 14.4347 228.1 11.704C229.209 8.97333 230.66 6.62666 232.452 4.66399C234.244 2.61599 236.377 1.592 238.852 1.592C243.887 1.592 246.404 5.38933 246.404 12.984C246.404 15.9707 245.892 20.28 244.868 25.912C243.929 31.4587 242.18 37.688 239.62 44.6C238.34 48.184 236.804 51.8107 235.012 55.48C233.305 59.064 231.599 62.3493 229.892 65.336C229.807 66.0187 229.764 66.744 229.764 67.512C229.764 68.1947 229.764 68.8773 229.764 69.56C229.764 72.4613 229.849 75.4053 230.02 78.392C230.276 81.3787 230.66 84.152 231.172 86.712C231.769 89.1867 232.58 91.192 233.604 92.728C234.628 94.264 235.951 95.032 237.572 95.032C239.449 95.032 240.943 94.264 242.052 92.728C243.247 91.1067 244.143 89.5707 244.74 88.12C245.081 87.352 245.38 86.4987 245.636 85.56C245.977 84.6213 246.319 83.64 246.66 82.616C247.001 81.6773 247.471 81.208 248.068 81.208C248.495 81.208 248.708 81.6773 248.708 82.616V82.872C248.708 83.4693 248.58 84.2373 248.324 85.176C248.153 86.1147 247.897 87.0533 247.556 87.992C246.532 91.1493 245.039 93.88 243.076 96.184C241.113 98.4027 238.34 99.512 234.756 99.512ZM230.02 59.832C232.239 55.3093 234.287 50.5307 236.164 45.496C238.041 40.376 239.535 35.3413 240.644 30.392C241.839 25.4427 242.436 20.9627 242.436 16.952C242.436 14.4773 242.223 12.4293 241.796 10.808C241.455 9.18667 240.772 8.376 239.748 8.376C238.809 8.376 237.913 9.35733 237.06 11.32C236.292 13.1973 235.567 15.7147 234.884 18.872C234.201 22.0293 233.561 25.4427 232.964 29.112C232.452 32.696 231.983 36.28 231.556 39.864C231.215 43.3627 230.916 46.4773 230.66 49.208C230.489 51.8533 230.361 53.7733 230.276 54.968C230.276 55.48 230.233 56.1627 230.148 57.016C230.148 57.784 230.105 58.7227 230.02 59.832ZM260.893 100.28C257.992 100.28 255.602 99.512 253.725 97.976C251.933 96.44 250.525 94.4347 249.501 91.96C248.562 89.4853 247.88 86.7973 247.453 83.896C247.112 80.9093 246.941 78.008 246.941 75.192C246.941 73.0587 247.026 71.096 247.197 69.304C247.368 67.4267 247.496 65.8053 247.581 64.44C248.008 60.856 248.946 57.272 250.397 53.688C251.848 50.0187 253.981 46.9893 256.797 44.6C259.613 42.1253 263.325 40.888 267.933 40.888C271.176 40.888 273.65 41.9547 275.357 44.088C277.149 46.136 278.386 48.824 279.069 52.152C279.752 55.3947 280.093 58.8507 280.093 62.52C280.093 63.544 280.05 64.568 279.965 65.592C279.965 66.616 279.922 67.64 279.837 68.664C281.97 71.0533 284.53 72.248 287.517 72.248C289.821 72.248 292.082 71.3947 294.301 69.688C294.813 69.2613 295.282 69.048 295.709 69.048C296.05 69.048 296.221 69.2613 296.221 69.688C296.221 70.456 296.008 70.968 295.581 71.224C294.216 72.504 292.765 73.4427 291.229 74.04C289.693 74.6373 288.157 74.936 286.621 74.936C283.976 74.936 281.544 74.168 279.325 72.632C279.154 74.2533 278.898 75.7893 278.557 77.24C278.301 78.6053 278.045 79.8 277.789 80.824C277.021 83.4693 275.869 86.328 274.333 89.4C272.882 92.3867 271.005 94.9467 268.701 97.08C266.482 99.2133 263.88 100.28 260.893 100.28ZM265.117 93.24C266.909 93.24 268.402 92.3867 269.597 90.68C270.877 88.9733 271.944 87.0107 272.797 84.792C273.65 82.5733 274.248 80.696 274.589 79.16C274.845 77.9653 275.058 76.6 275.229 75.064C275.4 73.528 275.528 71.6933 275.613 69.56C274.418 68.536 273.394 66.7013 272.541 64.056C271.773 61.3253 271.389 58.7227 271.389 56.248C271.389 54.5413 271.602 53.048 272.029 51.768C272.456 50.4027 273.096 49.5067 273.949 49.08C273.437 47.8 272.754 46.6053 271.901 45.496C271.048 44.3013 269.853 43.704 268.317 43.704C266.866 43.704 265.544 44.5573 264.349 46.264C263.24 47.9707 262.258 50.0187 261.405 52.408C260.552 54.7973 259.869 57.0587 259.357 59.192C258.93 61.3253 258.674 62.8187 258.589 63.672C258.504 64.6107 258.376 66.0613 258.205 68.024C258.034 69.9013 257.949 71.992 257.949 74.296C257.949 77.1973 258.12 80.0987 258.461 83C258.888 85.9013 259.613 88.3333 260.637 90.296C261.661 92.2587 263.154 93.24 265.117 93.24ZM297.886 99.64C296.094 99.64 294.686 98.8293 293.662 97.208C292.638 95.5013 291.87 93.496 291.358 91.192C290.931 88.888 290.633 86.8827 290.462 85.176C290.291 83.2987 290.163 81.4213 290.078 79.544C289.993 77.6667 289.95 75.9173 289.95 74.296C289.95 73.1013 289.95 72.0347 289.95 71.096C289.95 70.072 289.993 69.2613 290.078 68.664C290.249 66.4453 290.505 64.056 290.846 61.496C291.273 58.8507 291.955 56.376 292.894 54.072C293.918 51.768 295.283 49.8907 296.99 48.44C298.782 46.9893 301.086 46.264 303.902 46.264C304.158 46.264 304.414 46.3067 304.67 46.392C304.926 46.392 305.182 46.392 305.438 46.392V47.544C304.243 47.8853 303.177 49.464 302.238 52.28C301.299 55.0107 300.574 58.3387 300.062 62.264C299.55 66.1893 299.294 70.072 299.294 73.912C299.294 76.472 299.422 78.776 299.678 80.824C300.275 86.2853 301.641 89.016 303.774 89.016C305.737 89.016 307.699 86.7547 309.662 82.232C311.539 77.9653 312.777 73.528 313.374 68.92C314.057 64.2267 314.697 59.576 315.294 54.968C315.465 53.688 315.721 52.4933 316.062 51.384C316.403 50.1893 316.873 49.1653 317.47 48.312C317.897 47.544 319.134 46.9467 321.182 46.52C323.315 46.0933 325.193 45.88 326.814 45.88C327.411 45.88 327.71 46.0933 327.71 46.52C327.71 46.776 327.497 47.032 327.07 47.288C326.473 47.6293 325.961 48.9093 325.534 51.128C325.193 53.3467 324.937 55.7787 324.766 58.424C324.681 59.7893 324.595 61.1973 324.51 62.648C324.51 64.0133 324.51 65.4213 324.51 66.872C324.51 68.2373 324.51 69.56 324.51 70.84C324.595 72.12 324.681 73.4 324.766 74.68C324.851 75.6187 324.979 77.1547 325.15 79.288C325.406 81.336 325.79 83.512 326.302 85.816C326.814 88.0347 327.497 89.9547 328.35 91.576C329.289 93.1973 330.441 94.008 331.806 94.008C333.342 94.008 334.707 93.4107 335.902 92.216C337.097 91.0213 338.121 89.528 338.974 87.736C339.827 85.8587 340.467 83.9813 340.894 82.104C341.406 80.2267 341.747 78.648 341.918 77.368C342.089 76.0027 342.217 74.424 342.302 72.632C342.387 70.84 342.43 68.8773 342.43 66.744C342.43 62.392 342.089 57.912 341.406 53.304C340.809 48.6107 339.529 44.8987 337.566 42.168C337.225 41.7413 337.054 41.2293 337.054 40.632C337.054 39.6933 337.481 38.9253 338.334 38.328C339.187 37.6453 340.169 37.304 341.278 37.304C342.046 37.304 342.814 37.5173 343.582 37.944C344.435 38.3707 345.161 39.1387 345.758 40.248C346.526 41.6133 347.081 43.5333 347.422 46.008C347.763 48.4827 347.934 51.2987 347.934 54.456C347.934 59.4053 347.507 64.7387 346.654 70.456C345.801 76.1733 344.521 81.2933 342.814 85.816C342.131 87.608 341.107 89.6133 339.742 91.832C338.377 93.9653 336.713 95.8 334.75 97.336C332.873 98.872 330.697 99.64 328.222 99.64C327.881 99.64 327.539 99.5973 327.198 99.512C326.942 99.512 326.601 99.4693 326.174 99.384C323.102 98.7013 320.585 96.3547 318.622 92.344C316.745 88.3333 315.678 83.0853 315.422 76.6C315.081 78.2213 314.398 80.312 313.374 82.872C312.435 85.432 311.198 87.992 309.662 90.552C308.126 93.112 306.377 95.288 304.414 97.08C302.451 98.7867 300.275 99.64 297.886 99.64ZM374.841 115.128C370.66 115.128 367.204 113.677 364.473 110.776C361.828 107.875 360.505 103.395 360.505 97.336C360.505 96.2267 360.548 95.1173 360.633 94.008C360.718 92.8987 360.846 91.704 361.017 90.424C361.956 84.28 364.345 78.52 368.185 73.144C372.11 67.6827 377.06 62.904 383.033 58.808C389.006 54.6267 395.62 51.4693 402.873 49.336C402.958 48.824 403.001 48.3547 403.001 47.928C403.001 47.416 403.001 46.9467 403.001 46.52V44.088C403.001 41.016 402.83 37.7307 402.489 34.232C402.233 30.648 401.593 27.32 400.569 24.248C399.545 21.176 397.966 18.6587 395.833 16.696C393.785 14.7333 390.926 13.752 387.257 13.752C386.916 13.752 386.532 13.752 386.105 13.752C385.764 13.752 385.38 13.7947 384.953 13.88C380.601 14.392 376.59 16.1413 372.921 19.128C369.252 22.0293 366.222 25.7413 363.833 30.264C361.444 34.7867 359.908 39.608 359.225 44.728C359.14 45.3253 359.054 45.88 358.969 46.392C358.969 46.904 358.969 47.3733 358.969 47.8C358.969 51.384 359.865 53.176 361.657 53.176C362.169 53.176 362.766 52.9627 363.449 52.536C363.534 52.4507 363.662 52.408 363.833 52.408C364.089 52.408 364.217 52.6213 364.217 53.048C364.217 53.7307 363.705 54.7973 362.681 56.248C361.742 57.6133 360.292 58.424 358.329 58.68H357.433C355.47 58.68 354.105 57.8267 353.337 56.12C352.654 54.4133 352.313 52.536 352.313 50.488C352.313 49.976 352.313 49.5067 352.313 49.08C352.313 48.568 352.356 48.0987 352.441 47.672C352.953 43.1493 354.318 38.6267 356.537 34.104C358.841 29.5813 361.657 25.4853 364.985 21.816C368.398 18.0613 372.153 15.0747 376.249 12.856C380.345 10.552 384.484 9.39999 388.665 9.39999H389.433C394.468 9.39999 398.521 10.5947 401.593 12.984C404.75 15.288 407.182 18.3173 408.889 22.072C410.596 25.8267 411.748 29.88 412.345 34.232C413.028 38.584 413.369 42.808 413.369 46.904V47.032C414.99 46.8613 416.612 46.7333 418.233 46.648C419.94 46.4773 421.604 46.392 423.225 46.392C424.164 46.392 425.145 46.4347 426.169 46.52C427.193 46.52 428.217 46.5627 429.241 46.648C430.606 46.7333 431.289 47.0747 431.289 47.672C431.289 48.3547 430.606 48.696 429.241 48.696H428.857C428.174 48.696 427.449 48.696 426.681 48.696C425.913 48.6107 425.188 48.568 424.505 48.568C422.628 48.568 420.75 48.6533 418.873 48.824C416.996 48.9947 415.161 49.2507 413.369 49.592C413.369 50.1893 413.326 50.744 413.241 51.256C413.241 51.768 413.241 52.28 413.241 52.792C413.07 55.7787 412.558 59.4053 411.705 63.672C410.852 67.8533 409.657 72.2907 408.121 76.984C406.585 81.6773 404.708 86.2853 402.489 90.808C400.356 95.3307 397.881 99.4267 395.065 103.096C392.334 106.765 389.262 109.667 385.849 111.8C382.521 114.019 378.852 115.128 374.841 115.128ZM374.329 111.416C377.998 111.416 381.284 110.008 384.185 107.192C387.086 104.461 389.604 100.835 391.737 96.312C393.956 91.7893 395.79 86.8827 397.241 81.592C398.777 76.3013 399.972 71.1387 400.825 66.104C401.678 60.984 402.276 56.504 402.617 52.664C396.558 55.0533 391.097 58.2107 386.233 62.136C381.369 66.0613 377.316 70.456 374.073 75.32C370.916 80.0987 368.74 85.0053 367.545 90.04C366.777 93.4533 366.393 96.5253 366.393 99.256C366.393 103.181 367.118 106.168 368.569 108.216C370.105 110.349 372.025 111.416 374.329 111.416ZM431.05 99.512C429.173 99.512 427.466 98.744 425.93 97.208C424.479 95.672 423.413 93.3253 422.73 90.168C422.389 88.7173 422.133 86.8827 421.962 84.664C421.877 82.4453 421.834 80.0987 421.834 77.624C421.834 73.8693 421.962 69.9867 422.218 65.976C422.559 61.9653 422.986 58.296 423.498 54.968C424.01 51.5547 424.607 48.952 425.29 47.16C425.717 46.136 426.485 45.24 427.594 44.472C428.789 43.704 430.325 43.32 432.202 43.32C433.482 43.32 434.762 43.4907 436.042 43.832C435.786 44.7707 435.274 46.9893 434.506 50.488C433.823 53.9867 433.226 57.8693 432.714 62.136C432.373 65.1227 432.074 68.1947 431.818 71.352C431.562 74.424 431.434 77.3253 431.434 80.056C431.434 83.5547 431.733 86.4987 432.33 88.888C432.927 91.192 433.909 92.344 435.274 92.344C436.895 92.344 438.303 91.4053 439.498 89.528C440.778 87.5653 441.887 85.1333 442.826 82.232C443.765 79.3307 444.49 76.4293 445.002 73.528C445.77 69.2613 446.453 64.696 447.05 59.832C447.647 54.8827 448.33 50.6587 449.098 47.16C449.354 46.136 450.079 45.24 451.274 44.472C452.554 43.704 454.133 43.32 456.01 43.32C457.29 43.32 458.57 43.4907 459.85 43.832C459.167 45.7093 458.485 48.5253 457.802 52.28C457.205 56.0347 456.693 60.1733 456.266 64.696C455.839 69.2187 455.626 73.6987 455.626 78.136C455.626 80.3547 455.711 82.7867 455.882 85.432C456.138 88.0773 456.607 90.3387 457.29 92.216C458.058 94.0933 459.125 95.032 460.49 95.032H460.618C461.301 95.032 462.026 94.6907 462.794 94.008C463.647 93.3253 464.543 92.0453 465.482 90.168C466.165 88.9733 466.762 87.5653 467.274 85.944C467.786 84.3227 468.341 82.5733 468.938 80.696C469.279 79.928 469.621 79.544 469.962 79.544C470.389 79.544 470.602 80.056 470.602 81.08V81.592C470.431 83.8107 469.834 86.328 468.81 89.144C467.786 91.96 466.335 94.392 464.458 96.44C462.666 98.488 460.49 99.512 457.93 99.512C455.029 99.512 452.725 98.488 451.018 96.44C449.311 94.3067 448.074 91.7467 447.306 88.76C446.538 85.688 446.069 82.744 445.898 79.928C445.301 82.1467 444.618 84.3653 443.85 86.584C443.082 88.8027 442.143 90.7653 441.034 92.472C437.962 97.1653 434.634 99.512 431.05 99.512ZM472.662 100.024C471.467 100.024 470.443 99.5973 469.59 98.744C468.822 97.8053 468.438 96.2693 468.438 94.136C468.438 93.7947 468.438 93.4533 468.438 93.112C468.438 92.6853 468.481 92.2587 468.566 91.832C468.737 90.296 468.907 88.1627 469.078 85.432C469.334 82.7013 469.505 79.6293 469.59 76.216C469.761 72.8027 469.846 69.3893 469.846 65.976C469.846 62.392 469.718 59.0213 469.462 55.864C469.291 52.6213 468.95 50.0613 468.438 48.184C469.121 48.0133 470.017 47.544 471.126 46.776C472.235 46.008 473.387 45.496 474.582 45.24C474.838 45.1547 475.179 45.112 475.606 45.112C477.057 45.112 477.953 45.88 478.294 47.416C478.721 48.952 478.934 50.8293 478.934 53.048C478.934 54.584 478.891 56.4187 478.806 58.552C478.806 60.6 478.721 62.392 478.55 63.928C479.489 61.1973 480.513 58.8507 481.622 56.888C482.731 54.84 483.926 52.8773 485.206 51C486.486 49.0373 487.851 47.1173 489.302 45.24C490.753 43.2773 492.715 42.296 495.19 42.296C497.75 42.296 499.414 43.1493 500.182 44.856C500.95 46.5627 501.334 48.44 501.334 50.488C501.334 51.5973 501.291 52.664 501.206 53.688C501.121 54.6267 501.035 55.5227 500.95 56.376C500.95 56.9733 500.822 58.552 500.566 61.112C500.31 63.5867 500.054 66.5307 499.798 69.944C499.542 73.272 499.414 76.6427 499.414 80.056C499.414 80.9947 499.457 82.3173 499.542 84.024C499.627 85.6453 499.798 87.3093 500.054 89.016C500.31 90.6373 500.737 92.0453 501.334 93.24C502.017 94.3493 502.913 94.904 504.022 94.904C504.705 94.904 505.473 94.648 506.326 94.136C507.265 93.4533 508.075 92.5573 508.758 91.448C509.526 90.3387 510.123 89.2293 510.55 88.12C510.891 87.352 511.233 86.4987 511.574 85.56C511.915 84.6213 512.214 83.64 512.47 82.616C512.811 81.592 513.281 81.08 513.878 81.08C514.305 81.08 514.518 81.5067 514.518 82.36V82.872C514.518 83.4693 514.39 84.2373 514.134 85.176C513.963 86.1147 513.707 87.0533 513.366 87.992C512.342 91.1493 510.806 93.9227 508.758 96.312C506.795 98.616 504.022 99.768 500.438 99.768C498.049 99.768 496.171 98.872 494.806 97.08C493.526 95.2027 492.587 92.8133 491.99 89.912C491.649 88.2907 491.393 86.6693 491.222 85.048C491.137 83.4267 491.094 81.8053 491.094 80.184C491.094 76.1733 491.35 72.2053 491.862 68.28C492.459 64.2693 492.758 60.4293 492.758 56.76C492.758 55.5653 492.587 54.456 492.246 53.432C491.99 52.3227 491.35 51.768 490.326 51.768C489.302 51.768 488.065 52.7493 486.614 54.712C485.163 56.5893 483.67 59.3627 482.134 63.032C480.598 66.616 479.318 70.712 478.294 75.32C477.27 79.8427 476.758 84.4933 476.758 89.272C476.758 92.1733 477.014 95.1173 477.526 98.104C476.929 98.5307 476.161 98.9573 475.222 99.384C474.283 99.8107 473.43 100.024 472.662 100.024ZM525.107 34.232C523.486 34.232 522.035 33.6347 520.755 32.44C519.56 31.2453 518.963 29.7947 518.963 28.088C518.963 26.3813 519.56 24.9307 520.755 23.736C522.035 22.5413 523.486 21.944 525.107 21.944C526.814 21.944 528.264 22.5413 529.459 23.736C530.654 24.9307 531.251 26.3813 531.251 28.088C531.251 29.7947 530.654 31.2453 529.459 32.44C528.264 33.6347 526.814 34.232 525.107 34.232ZM524.211 99.64C521.139 99.64 518.707 98.36 516.915 95.8C515.208 93.1547 513.971 89.8267 513.203 85.816C512.52 81.72 512.179 77.4533 512.179 73.016C512.179 69.3467 512.35 65.8053 512.691 62.392C513.118 58.8933 513.587 55.864 514.099 53.304C514.696 50.6587 515.251 48.7813 515.763 47.672C516.275 46.648 517.086 45.7093 518.195 44.856C519.39 43.9173 520.968 43.448 522.931 43.448C524.04 43.448 525.15 43.576 526.259 43.832C525.406 46.8187 524.382 50.9573 523.187 56.248C521.992 61.5387 521.395 67.384 521.395 73.784C521.395 76.0027 521.438 78.392 521.523 80.952C521.608 83.4267 521.822 85.7733 522.163 87.992C522.504 90.1253 523.016 91.8747 523.699 93.24C524.467 94.6053 525.448 95.288 526.643 95.288H526.771C527.454 95.288 528.179 94.9467 528.947 94.264C529.8 93.5813 530.696 92.3013 531.635 90.424C532.915 87.9493 534.11 84.7493 535.219 80.824C535.39 80.056 535.731 79.672 536.243 79.672C536.67 79.672 536.883 80.184 536.883 81.208V81.72C536.712 83.9387 536.115 86.456 535.091 89.272C534.067 92.088 532.616 94.52 530.739 96.568C528.947 98.616 526.771 99.64 524.211 99.64ZM549.536 100.28C546.635 100.28 544.245 99.512 542.368 97.976C540.576 96.44 539.168 94.4347 538.144 91.96C537.205 89.4853 536.523 86.7973 536.096 83.896C535.755 80.9093 535.584 78.008 535.584 75.192C535.584 73.0587 535.669 71.096 535.84 69.304C536.011 67.4267 536.139 65.8053 536.224 64.44C536.651 60.856 537.589 57.272 539.04 53.688C540.491 50.0187 542.624 46.9893 545.44 44.6C548.256 42.1253 551.968 40.888 556.576 40.888C560.587 40.888 563.488 42.5093 565.28 45.752C567.072 48.9947 568.139 52.8347 568.48 57.272C569.931 58.296 571.253 58.808 572.448 58.808C573.984 58.808 575.435 58.04 576.8 56.504C578.165 54.968 579.317 52.408 580.256 48.824C579.147 47.7147 578.293 46.392 577.696 44.856C577.099 43.2347 576.8 41.656 576.8 40.12C576.8 38.328 577.184 36.792 577.952 35.512C578.72 34.1467 579.915 33.464 581.536 33.464C581.707 33.464 581.835 33.5067 581.92 33.592C582.091 33.592 582.261 33.592 582.432 33.592C583.541 33.7627 584.309 34.4027 584.736 35.512C585.163 36.6213 585.376 37.9013 585.376 39.352C585.376 41.3147 585.12 43.3627 584.608 45.496C584.181 47.544 583.797 49.0373 583.456 49.976C583.285 50.3173 583.2 50.5733 583.2 50.744C583.627 50.8293 584.011 50.872 584.352 50.872C584.779 50.872 585.163 50.872 585.504 50.872C587.893 50.872 589.557 50.4027 590.496 49.464C591.179 48.7813 591.947 47.8427 592.8 46.648C593.739 45.368 595.147 44.728 597.024 44.728C598.475 44.728 600.096 45.1973 601.888 46.136C601.632 46.648 601.291 47.416 600.864 48.44C600.437 49.3787 599.968 50.616 599.456 52.152C598.176 55.992 597.024 60.344 596 65.208C594.976 69.9867 594.379 74.8933 594.208 79.928V82.232C594.208 83.8533 594.336 85.7307 594.592 87.864C594.848 89.912 595.317 91.704 596 93.24C596.768 94.776 597.92 95.6293 599.456 95.8H599.968C601.675 95.8 603.04 95.288 604.064 94.264C605.088 93.1547 605.941 91.9173 606.624 90.552C607.307 89.3573 607.904 87.9067 608.416 86.2C609.013 84.4933 609.611 82.7013 610.208 80.824C610.549 80.056 610.891 79.672 611.232 79.672C611.659 79.672 611.872 80.184 611.872 81.208V81.72C611.787 83.4267 611.488 85.2613 610.976 87.224C610.464 89.1013 609.696 90.8507 608.672 92.472L607.008 95.032C605.131 97.7627 602.571 99.384 599.328 99.896C598.987 99.9813 598.603 100.024 598.176 100.024C597.835 100.024 597.451 100.024 597.024 100.024C593.952 100.024 591.605 99.128 589.984 97.336C588.363 95.4587 587.211 93.112 586.528 90.296C585.931 87.3947 585.632 84.4507 585.632 81.464C585.632 79.2453 585.717 77.1547 585.888 75.192C586.144 73.144 586.357 71.352 586.528 69.816C587.296 63.5013 588.235 58.2107 589.344 53.944C587.979 54.2 586.741 54.328 585.632 54.328C584.864 54.328 584.181 54.2853 583.584 54.2C582.987 54.0293 582.432 53.9013 581.92 53.816C580.555 56.632 579.019 58.6373 577.312 59.832C575.605 60.9413 573.899 61.496 572.192 61.496C571.168 61.496 570.016 61.2827 568.736 60.856V61.88C568.736 65.5493 568.48 69.1333 567.968 72.632C567.541 76.0453 567.029 78.776 566.432 80.824C565.749 83.4693 564.64 86.328 563.104 89.4C561.568 92.3867 559.648 94.9467 557.344 97.08C555.125 99.2133 552.523 100.28 549.536 100.28ZM553.76 93.24C555.552 93.24 557.045 92.3867 558.24 90.68C559.52 88.9733 560.587 87.0107 561.44 84.792C562.293 82.5733 562.891 80.696 563.232 79.16C563.573 77.88 563.829 76.216 564 74.168C564.256 72.12 564.384 69.9867 564.384 67.768C564.384 65.976 564.256 64.184 564 62.392C563.829 60.5147 563.531 58.7653 563.104 57.144C561.909 56.2053 560.629 54.8827 559.264 53.176C557.984 51.384 557.344 49.6773 557.344 48.056C557.344 46.52 558.069 45.3253 559.52 44.472C558.667 43.8747 557.856 43.576 557.088 43.576C555.552 43.576 554.187 44.4293 552.992 46.136C551.797 47.8427 550.773 49.8907 549.92 52.28C549.152 54.6693 548.512 56.9733 548 59.192C547.573 61.3253 547.317 62.8187 547.232 63.672C547.147 64.6107 547.019 66.0613 546.848 68.024C546.677 69.9013 546.592 71.992 546.592 74.296C546.592 77.1973 546.763 80.0987 547.104 83C547.531 85.9013 548.256 88.3333 549.28 90.296C550.304 92.2587 551.797 93.24 553.76 93.24Z" fill="white"/>
</svg>
